<?xml version="1.0" encoding="UTF-8"?>
<!DOCTYPE svg PUBLIC "-//W3C//DTD SVG 1.1//EN" "http://www.w3.org/Graphics/SVG/1.1/DTD/svg11.dtd">
<!-- Creator: CorelDRAW 2017 -->
<svg xmlns="http://www.w3.org/2000/svg" xml:space="preserve" width="46px" height="46px" version="1.1" style="shape-rendering:geometricPrecision; text-rendering:geometricPrecision; image-rendering:optimizeQuality; fill-rule:evenodd; clip-rule:evenodd"
viewBox="0 0 6.087 6.088"
 xmlns:xlink="http://www.w3.org/1999/xlink">
 <defs>
  <style type="text/css">
   <![CDATA[
    .fil0 {fill:#00000;fill-rule:nonzero}
   ]]>
  </style>
 </defs>
 <g id="Слой_x0020_1">
  <metadata id="CorelCorpID_0Corel-Layer"/>
  <path class="fil0" d="M5.955 0l-5.823 0c-0.073,0 -0.132,0.059 -0.132,0.132l0 1.324c0,0.073 0.059,0.132 0.132,0.132l0.133 0 0 0.662c0,0.219 0.178,0.397 0.397,0.397l0.529 0c0.047,0 0.091,-0.01 0.132,-0.025l0 0.157c0,0.102 0.04,0.194 0.103,0.265 -0.063,0.07 -0.103,0.162 -0.103,0.264l0 0.157c-0.041,-0.015 -0.085,-0.024 -0.132,-0.024l-0.529 0c-0.219,0 -0.397,0.178 -0.397,0.397l0 0.661 -0.133 0c-0.073,0 -0.132,0.06 -0.132,0.133l0 1.323c0,0.073 0.059,0.133 0.132,0.133l5.823 0c0.073,0 0.132,-0.06 0.132,-0.133l0 -1.323c0,-0.073 -0.059,-0.133 -0.132,-0.133l-0.132 0 0 -0.661c0,-0.219 -0.179,-0.397 -0.397,-0.397l-0.53 0c-0.046,0 -0.09,0.009 -0.132,0.024l0 -0.157c0,-0.102 -0.04,-0.194 -0.103,-0.264 0.063,-0.071 0.103,-0.163 0.103,-0.265l0 -0.157c0.042,0.015 0.086,0.025 0.132,0.025l0.53 0c0.218,0 0.397,-0.178 0.397,-0.397l0 -0.662 0.132 0c0.073,0 0.132,-0.059 0.132,-0.132l0 -1.324c0,-0.073 -0.059,-0.132 -0.132,-0.132zm-4.764 2.382l-0.529 0c-0.073,0 -0.133,-0.059 -0.133,-0.132l0 -0.794c0,-0.219 0.178,-0.397 0.397,-0.397 0.219,0 0.397,0.178 0.397,0.397l0 0.794c0,0.073 -0.059,0.132 -0.132,0.132zm0.397 -0.662c0,-0.364 0.297,-0.661 0.662,-0.661 0.364,0 0.661,0.297 0.661,0.661l0 1.059c0,0.073 -0.059,0.132 -0.132,0.132l-1.059 0c-0.073,0 -0.132,-0.059 -0.132,-0.132l0 -1.059zm1.588 0c0,-0.364 0.297,-0.661 0.662,-0.661 0.365,0 0.661,0.297 0.661,0.661l0 1.059c0,0.073 -0.059,0.132 -0.132,0.132l-1.059 0c-0.073,0 -0.132,-0.059 -0.132,-0.132l0 -1.059zm1.323 1.588l0 1.059c0,0.365 -0.296,0.662 -0.661,0.662 -0.365,0 -0.662,-0.297 -0.662,-0.662l0 -1.059c0,-0.072 0.059,-0.132 0.132,-0.132l1.059 0c0.073,0 0.132,0.06 0.132,0.132zm-2.911 0.53l0 -0.53c0,-0.072 0.059,-0.132 0.132,-0.132l1.059 0c0.073,0 0.132,0.06 0.132,0.132l0 1.059c0,0.365 -0.297,0.662 -0.661,0.662 -0.365,0 -0.662,-0.297 -0.662,-0.662l0 -0.529zm-1.059 0c0,-0.073 0.06,-0.133 0.133,-0.133l0.529 0c0.073,0 0.132,0.06 0.132,0.133l0 0.794c0,0.219 -0.178,0.397 -0.397,0.397 -0.219,0 -0.397,-0.178 -0.397,-0.397l0 -0.794zm5.294 1.985l-5.558 0 0 -1.059 0.013 0c0.062,0.302 0.329,0.529 0.648,0.529 0.258,0 0.479,-0.149 0.589,-0.365 0.169,0.222 0.435,0.365 0.735,0.365 0.337,0 0.632,-0.181 0.794,-0.451 0.162,0.27 0.457,0.451 0.794,0.451 0.299,0 0.565,-0.143 0.735,-0.365 0.109,0.216 0.331,0.365 0.588,0.365 0.32,0 0.587,-0.227 0.648,-0.529l0.014 0 0 1.059zm-0.927 -2.118l0.53 0c0.073,0 0.132,0.06 0.132,0.133l0 0.794c0,0.219 -0.178,0.397 -0.397,0.397 -0.219,0 -0.397,-0.178 -0.397,-0.397l0 -0.794c0,-0.073 0.059,-0.133 0.132,-0.133zm0.662 -1.455c0,0.073 -0.059,0.132 -0.132,0.132l-0.53 0c-0.073,0 -0.132,-0.059 -0.132,-0.132l0 -0.794c0,-0.219 0.178,-0.397 0.397,-0.397 0.219,0 0.397,0.178 0.397,0.397l0 0.794zm0.265 -0.927l-0.014 0c-0.061,-0.301 -0.328,-0.529 -0.648,-0.529 -0.257,0 -0.479,0.149 -0.588,0.365 -0.17,-0.221 -0.436,-0.365 -0.735,-0.365 -0.337,0 -0.632,0.182 -0.794,0.452 -0.162,-0.27 -0.457,-0.452 -0.794,-0.452 -0.3,0 -0.566,0.144 -0.735,0.365 -0.11,-0.216 -0.331,-0.365 -0.589,-0.365 -0.319,0 -0.586,0.228 -0.648,0.529l-0.013 0 0 -1.058 5.558 0 0 1.058z"/>
 </g>
</svg>
