<?xml version="1.0" encoding="UTF-8"?>
<!DOCTYPE svg PUBLIC "-//W3C//DTD SVG 1.1//EN" "http://www.w3.org/Graphics/SVG/1.1/DTD/svg11.dtd">
<!-- Creator: CorelDRAW 2017 -->
<svg xmlns="http://www.w3.org/2000/svg" xml:space="preserve" width="46px" height="46px" version="1.1" style="shape-rendering:geometricPrecision; text-rendering:geometricPrecision; image-rendering:optimizeQuality; fill-rule:evenodd; clip-rule:evenodd"
viewBox="0 0 1.671 1.671"
 xmlns:xlink="http://www.w3.org/1999/xlink">
 <defs>
  <style type="text/css">
   <![CDATA[
    .fil0 {fill:#00000}
   ]]>
  </style>
 </defs>
 <g id="Слой_x0020_1">
  <metadata id="CorelCorpID_0Corel-Layer"/>
  <path class="fil0" d="M1.635 1.163c-0.06,0 -0.109,-0.049 -0.109,-0.109l0 -0.425c0.086,-0.041 0.145,-0.128 0.145,-0.229 0,-0.141 -0.114,-0.255 -0.254,-0.255l-0.908 0 0 -0.109c0,-0.02 -0.017,-0.036 -0.037,-0.036l-0.218 0c-0.14,0 -0.254,0.114 -0.254,0.254l0 0.146c0,0.101 0.06,0.188 0.145,0.229l0 0.392c-0.082,0.017 -0.145,0.09 -0.145,0.178l0 0.291c0,0.1 0.081,0.181 0.182,0.181l1.453 0c0.02,0 0.036,-0.016 0.036,-0.036l0 -0.436c0,-0.02 -0.016,-0.036 -0.036,-0.036zm-0.182 -0.146l-0.145 0 0 -0.363 0.109 0c0.012,0 0.024,-0.001 0.036,-0.003l0 0.366zm-0.363 0l0 -0.363 0.145 0 0 0.363 -0.145 0zm-0.218 0l0 -0.363 0.145 0 0 0.363 -0.145 0zm-0.218 0l0 -0.363 0.145 0 0 0.363 -0.145 0zm-0.218 0l0 -0.363 0.145 0 0 0.363 -0.145 0zm-0.363 -0.617l0 -0.146c0,-0.1 0.081,-0.181 0.181,-0.181l0.182 0 0 0.109c0,0.02 0.016,0.036 0.036,0.036l0.945 0c0.1,0 0.182,0.081 0.182,0.182 0,0.1 -0.082,0.181 -0.182,0.181l-1.163 0c-0.1,0 -0.181,-0.081 -0.181,-0.181l0 0zm0.181 0.254l0.109 0 0 0.363 -0.145 0 0 -0.366c0.012,0.002 0.024,0.003 0.036,0.003l0 0zm-0.072 0.436l1.275 0c0.015,0.071 0.071,0.127 0.142,0.142l0 0.149 -1.526 0 0 -0.182c0,-0.06 0.049,-0.109 0.109,-0.109l0 0zm0 0.509c-0.06,0 -0.109,-0.049 -0.109,-0.109l0 -0.037 1.526 0 0 0.146 -1.417 0zm0 0z"/>
 </g>
</svg>
