<?xml version="1.0" encoding="UTF-8"?>
<!DOCTYPE svg PUBLIC "-//W3C//DTD SVG 1.1//EN" "http://www.w3.org/Graphics/SVG/1.1/DTD/svg11.dtd">
<!-- Creator: CorelDRAW 2017 -->
<svg xmlns="http://www.w3.org/2000/svg" xml:space="preserve" width="46px" height="44px" version="1.1" style="shape-rendering:geometricPrecision; text-rendering:geometricPrecision; image-rendering:optimizeQuality; fill-rule:evenodd; clip-rule:evenodd"
viewBox="0 0 62.23 59.525"
 xmlns:xlink="http://www.w3.org/1999/xlink">
 <defs>
  <style type="text/css">
   <![CDATA[
    .fil0 {fill:#00000;fill-rule:nonzero}
   ]]>
  </style>
 </defs>
 <g id="Слой_x0020_1">
  <metadata id="CorelCorpID_0Corel-Layer"/>
  <path class="fil0" d="M40.586 56.759l17.587 0c0.747,0 1.353,-0.619 1.353,-1.383l0 -27.719c0,-0.763 -0.606,-1.382 -1.353,-1.382l-4.059 0 0 4.509 0 -0.51 0 4.9c0,2.989 -2.423,5.412 -5.412,5.412l-8.116 0 0 13.528 -18.941 0 0 -13.528 -8.117 0c-2.989,0 -5.412,-2.423 -5.412,-5.412l0 -8.899 -4.058 0c-0.748,0 -1.353,0.619 -1.353,1.382l0 27.719c0,0.764 0.605,1.383 1.353,1.383l17.587 0 0 -2.645 2.706 0 0 2.645 13.529 0 0 -2.645 2.706 0 0 2.645zm-16.235 -5.351l13.529 0 0 -2.706 -13.529 0 0 2.706zm0 -5.412l13.529 0 0 -5.41 -13.529 0 0 5.41zm-10.823 -8.116l35.174 0c1.495,0 2.706,-1.212 2.706,-2.706l0 -22.728c0,-5.338 -4.249,-9.681 -9.47,-9.681 -5.221,0 -9.47,4.343 -9.47,9.681 0,0.763 -0.607,1.382 -1.353,1.382 -0.746,0 -1.353,-0.619 -1.353,-1.382 0,-5.338 -4.248,-9.681 -9.469,-9.681 -5.222,0 -9.471,4.343 -9.471,9.681l0 22.728c0,1.494 1.212,2.706 2.706,2.706zm44.645 -14.371c2.241,0 4.057,1.857 4.057,4.148l0 27.719c0,2.291 -1.816,4.149 -4.057,4.149l-54.115 0c-2.242,0 -4.058,-1.858 -4.058,-4.149l0 -27.719c0,-2.291 1.816,-4.148 4.058,-4.148l4.058 0 0 -11.063c0,-6.863 5.464,-12.446 12.177,-12.446 4.706,0 8.796,2.743 10.822,6.747 2.027,-4.004 6.117,-6.747 10.823,-6.747 6.712,0 12.176,5.583 12.176,12.446l0 11.063 4.059 0zm-20.439 -2.612c-0.07,0.142 -1.783,3.455 -6.621,3.455 -4.838,0 -6.548,-3.313 -6.619,-3.455 -0.335,-0.667 -0.064,-1.481 0.605,-1.816 0.664,-0.331 1.469,-0.064 1.807,0.592 0.061,0.111 1.126,1.973 4.207,1.973 3.11,0 4.166,-1.895 4.21,-1.976 0.349,-0.653 1.164,-0.91 1.818,-0.568 0.658,0.34 0.923,1.135 0.593,1.795z"/>
 </g>
</svg>
