<?xml version="1.0" encoding="UTF-8"?>
<!DOCTYPE svg PUBLIC "-//W3C//DTD SVG 1.1//EN" "http://www.w3.org/Graphics/SVG/1.1/DTD/svg11.dtd">
<!-- Creator: CorelDRAW 2017 -->
<svg xmlns="http://www.w3.org/2000/svg" xml:space="preserve" width="46px" height="46px" version="1.1" style="shape-rendering:geometricPrecision; text-rendering:geometricPrecision; image-rendering:optimizeQuality; fill-rule:evenodd; clip-rule:evenodd"
viewBox="0 0 0.994 0.994"
 xmlns:xlink="http://www.w3.org/1999/xlink">
 <defs>
  <style type="text/css">
   <![CDATA[
    .fil0 {fill:#00000}
   ]]>
  </style>
 </defs>
 <g id="Слой_x0020_1">
  <metadata id="CorelCorpID_0Corel-Layer"/>
  <g id="_2749709533312">
   <path class="fil0" d="M0.821 0.217l0 -0.195c0,-0.012 -0.009,-0.022 -0.021,-0.022l-0.649 0c-0.005,0 -0.011,0.002 -0.015,0.006l-0.13 0.13c-0.004,0.004 -0.006,0.01 -0.006,0.015l0 0.822c0,0.012 0.01,0.021 0.022,0.021l0.778 0c0.059,0 0.108,-0.048 0.108,-0.108l0 -0.153c0.049,-0.01 0.086,-0.054 0.086,-0.106l0 -0.216c0,-0.1 -0.075,-0.183 -0.173,-0.194l0 0zm-0.043 0.001c-0.066,0.007 -0.122,0.047 -0.151,0.104 -0.033,-0.063 -0.098,-0.106 -0.173,-0.106 -0.107,0 -0.195,0.087 -0.195,0.195l0 0.216c0,0.052 0.038,0.096 0.087,0.106l0 0.088 -0.303 0 0 -0.605 0.152 0c0.011,0 0.021,-0.01 0.021,-0.021l0 -0.152 0.562 0 0 0.175zm-0.618 -0.175l0.013 0 0 0.13 -0.13 0 0 -0.013 0.117 -0.117zm-0.117 0.822l0.303 0 0 0.021c0,0.025 0.008,0.047 0.022,0.065l-0.325 0 0 -0.086zm0.671 0.086l-0.174 0c0.014,-0.018 0.022,-0.04 0.022,-0.065l0 -0.043c0,-0.036 0.029,-0.065 0.065,-0.065 0.036,0 0.065,0.029 0.065,0.065l0 0.043c0,0.025 0.008,0.047 0.022,0.065l0 0zm0.237 -0.324c0,0.036 -0.029,0.065 -0.065,0.065 -0.012,0 -0.021,0.009 -0.021,0.021l0 0.173c0,0.036 -0.029,0.065 -0.065,0.065 -0.036,0 -0.065,-0.029 -0.065,-0.065l0 -0.043c0,-0.06 -0.049,-0.108 -0.108,-0.108 -0.06,0 -0.108,0.048 -0.108,0.108l0 0.043c0,0.036 -0.029,0.065 -0.065,0.065 -0.036,0 -0.065,-0.029 -0.065,-0.065l0 -0.173c0,-0.012 -0.01,-0.021 -0.022,-0.021 -0.035,0 -0.064,-0.029 -0.064,-0.065l0 -0.216c0,-0.084 0.067,-0.152 0.151,-0.152 0.083,0 0.151,0.068 0.151,0.152 0,0.012 0.01,0.021 0.022,0.021 0.012,0 0.021,-0.009 0.021,-0.021 0,-0.084 0.068,-0.152 0.152,-0.152 0.083,0 0.151,0.068 0.151,0.152l0 0.216zm0 0z"/>
   <path class="fil0" d="M0.723 0.478c-0.01,-0.005 -0.023,-0.001 -0.029,0.009 -0.001,0.002 -0.017,0.032 -0.067,0.032 -0.049,0 -0.066,-0.03 -0.067,-0.032 -0.006,-0.01 -0.019,-0.014 -0.029,-0.009 -0.011,0.005 -0.015,0.018 -0.01,0.029 0.001,0.002 0.029,0.055 0.106,0.055 0.077,0 0.105,-0.053 0.106,-0.055 0.005,-0.011 0.001,-0.023 -0.01,-0.029zm0 0z"/>
  </g>
 </g>
</svg>
